<mxfile host="app.diagrams.net" agent="Mozilla/5.0 (Windows NT 10.0; Win64; x64) AppleWebKit/537.36 (KHTML, like Gecko) Chrome/130.0.0.0 Safari/537.36" version="24.8.3">
  <diagram name="Page-1" id="T7l55_DVFS_kSAmCFBzf">
    <mxGraphModel dx="1050" dy="557" grid="1" gridSize="10" guides="1" tooltips="1" connect="1" arrows="1" fold="1" page="1" pageScale="1" pageWidth="850" pageHeight="1100" math="0" shadow="0">
      <root>
        <mxCell id="0" />
        <mxCell id="1" parent="0" />
        <mxCell id="sujHo_DlBmJosKQxzyWs-2" value="&lt;ul&gt;&lt;li&gt;&lt;span style=&quot;background-color: initial;&quot;&gt;Search manhuas&lt;/span&gt;&lt;/li&gt;&lt;li&gt;Save manhuas on list like goodreads&lt;/li&gt;&lt;li&gt;List popular on homepage if possible(?)&lt;/li&gt;&lt;li&gt;&lt;br&gt;&lt;/li&gt;&lt;/ul&gt;" style="text;strokeColor=none;fillColor=none;html=1;whiteSpace=wrap;verticalAlign=middle;overflow=hidden;" vertex="1" parent="1">
          <mxGeometry width="190" height="130" as="geometry" />
        </mxCell>
        <mxCell id="sujHo_DlBmJosKQxzyWs-3" value="&lt;span style=&quot;font-size: 10px;&quot;&gt;Manhua/Manga&amp;nbsp;&lt;br&gt;API&lt;/span&gt;" style="whiteSpace=wrap;html=1;aspect=fixed;align=center;" vertex="1" parent="1">
          <mxGeometry x="640" y="160" width="80" height="80" as="geometry" />
        </mxCell>
      </root>
    </mxGraphModel>
  </diagram>
</mxfile>
